<mxfile host="app.diagrams.net" modified="2024-08-19T16:21:01.104Z" agent="Mozilla/5.0 (Windows NT 10.0; Win64; x64) AppleWebKit/537.36 (KHTML, like Gecko) Chrome/127.0.0.0 Safari/537.36" etag="3qZXnjySzp5C_PWoTqcH" version="24.6.4" type="device">
  <diagram name="Seite-1" id="G5NYXsr_mH4KdMRuljn1">
    <mxGraphModel dx="2074" dy="1106" grid="1" gridSize="10" guides="1" tooltips="1" connect="1" arrows="1" fold="1" page="1" pageScale="1" pageWidth="827" pageHeight="1169" math="0" shadow="0">
      <root>
        <mxCell id="0" />
        <mxCell id="1" parent="0" />
        <mxCell id="9MBxLPpkyZDxNFIZBmzM-4" style="edgeStyle=orthogonalEdgeStyle;rounded=0;orthogonalLoop=1;jettySize=auto;html=1;" edge="1" parent="1" source="9MBxLPpkyZDxNFIZBmzM-1" target="9MBxLPpkyZDxNFIZBmzM-2">
          <mxGeometry relative="1" as="geometry" />
        </mxCell>
        <mxCell id="9MBxLPpkyZDxNFIZBmzM-5" style="edgeStyle=orthogonalEdgeStyle;rounded=0;orthogonalLoop=1;jettySize=auto;html=1;" edge="1" parent="1" source="9MBxLPpkyZDxNFIZBmzM-1" target="9MBxLPpkyZDxNFIZBmzM-3">
          <mxGeometry relative="1" as="geometry" />
        </mxCell>
        <mxCell id="9MBxLPpkyZDxNFIZBmzM-1" value="Futterautomatenmanager" style="rounded=1;whiteSpace=wrap;html=1;" vertex="1" parent="1">
          <mxGeometry x="331" y="190" width="166" height="60" as="geometry" />
        </mxCell>
        <mxCell id="9MBxLPpkyZDxNFIZBmzM-2" value="Datenbank" style="rounded=1;whiteSpace=wrap;html=1;" vertex="1" parent="1">
          <mxGeometry x="165" y="390" width="166" height="60" as="geometry" />
        </mxCell>
        <mxCell id="9MBxLPpkyZDxNFIZBmzM-3" value="Applikation" style="rounded=1;whiteSpace=wrap;html=1;" vertex="1" parent="1">
          <mxGeometry x="497" y="390" width="166" height="60" as="geometry" />
        </mxCell>
      </root>
    </mxGraphModel>
  </diagram>
</mxfile>
